{"title":"Raja Vikramarka (1990) VCD Telugu Movie - teluguppls","uid":6510850,"size":1623546020,"categoryP":"video","categoryS":"movies","magnet":"?xt=urn:btih:123423fdab65fe36217181d4d2379df012bb1b5f&amp;dn=Raja+Vikramarka+%281990%29+VCD+Telugu+Movie+-+teluguppls&amp;tr=udp%3A%2F%2Ftracker.openbittorrent.com%3A80&amp;tr=udp%3A%2F%2Fopen.demonii.com%3A1337&amp;tr=udp%3A%2F%2Ftracker.coppersurfer.tk%3A6969&amp;tr=udp%3A%2F%2Fexodus.desync.com%3A6969","seeders":0,"leechers":1,"uploader":"n1212","files":3,"time":1309616069,"description":"Raja Vikramarka (1990) VCD Telugu Movie - teluguppls\n\n\n\nGeneral\n\nFormat                           : CDXA/MPEG-PS\nFile size                        : 1549 MiB\nDuration                         : 2h 38mn\nOverall bit rate                 : 1 412 Kbps\n\n\nVideo\n\nFormat                           : MPEG Video\nDuration                         : 2h 38mn\nBit rate mode                    : Constant\nBit rate                         : 1 120 Kbps\nWidth                            : 352 pixels\nHeight                           : 288 pixels\nDisplay aspect ratio             : 4:3\nFrame rate                       : 25.000 fps\nStandard                         : PAL\nColor space                      : YUV\nBit depth                        : 8 bits\nScan type                        : Progressive\nCompression mode                 : Lossy\nBits/(Pixel*Frame)               : 0.442\nStream size                      : 1272 MiB (82%)\n\n\nAudio\n\nFormat                           : MPEG Audio\nDuration                         : 2h 32mn\nBit rate mode                    : Constant\nBit rate                         : 224 Kbps\nChannel(s)                       : 2 channels\nSampling rate                    : 44.1 KHz\nCompression mode                 : Lossy\nDelay relative to video          : -80ms\nStream size                      : 246 MiB (16%)\n\n\nPLEASE SEEEEEEEEEEEDDDDDDDDDDDDDDDD.......................\n\nPOST A COMMENT....................\n\n\n","torrent":{"xt":"urn:btih:123423fdab65fe36217181d4d2379df012bb1b5f","amp;dn":"Raja+Vikramarka+%281990%29+VCD+Telugu+Movie+-+teluguppls","amp;tr":["udp%3A%2F%2Ftracker.openbittorrent.com%3A80","udp%3A%2F%2Fopen.demonii.com%3A1337","udp%3A%2F%2Ftracker.coppersurfer.tk%3A6969","udp%3A%2F%2Fexodus.desync.com%3A6969"],"infoHash":"123423fdab65fe36217181d4d2379df012bb1b5f","infoHashBuffer":{"type":"Buffer","data":[18,52,35,253,171,101,254,54,33,113,129,212,210,55,157,240,18,187,27,95]},"announce":[],"urlList":[]}}